<?xml version="1.0" encoding="utf-8"?>
<!-- Generator: Adobe Illustrator 24.3.0, SVG Export Plug-In . SVG Version: 6.00 Build 0)  -->
<svg version="1.1" id="Layer_1" xmlns="http://www.w3.org/2000/svg" xmlns:xlink="http://www.w3.org/1999/xlink" x="0px" y="0px"
	 viewBox="0 0 200 200" style="enable-background:new 0 0 200 200;" xml:space="preserve">
<style type="text/css">
	.st0{fill:#2C2C2C;}
</style>
<path class="st0" d="M147.6,115.9c-1.5-4.6-3.5-12.8-9-13.7c-5.3-1.8-4.2,8.2-3,11c0.3,0.9,1.3,1.3,2.1,1.5c0.9,1.5,1.7,3.1,2.9,4.3
	C143.8,122.3,148.7,120.8,147.6,115.9z"/>
<path class="st0" d="M139.5,103.7c-3.8-8-10.3-21-18.6-25.5c-1.4-0.8-4.8-0.5-4.9,1.8C115.3,91.6,146,118.4,139.5,103.7z"/>
<path class="st0" d="M122.2,79.7c-2.6-7.4-11-27-20.3-25.5c-1,0.5-4.6,1.5-3.2,3c-0.6,9,11.9,23.1,18.5,29.1
	C123.4,88.7,123.9,84.9,122.2,79.7z"/>
<path class="st0" d="M62.9,185c-0.1-0.1-0.2-0.2-0.3-0.3c-0.8-4.4-5.9-5.1-9.1-7.2c-2.5-2.1-10.7-5.9-10.8-0.2
	c2.2,5.1,8,7.3,12.3,10.2c0,0,0,0,0,0c0.1,0,0.1,0.1,0.2,0.1c0,0-0.1,0-0.1,0C57.5,188.5,63.4,189.1,62.9,185z"/>
<path class="st0" d="M77.8,150.3c-0.1-3.7-3.9-6.9-6.2-6.3c-1.4,0.3-3.1,1.2-3.9,3.3c-4.7,12.1-9.3,25.1-10.7,38
	c4.5,5.5,7.7-4.4,9.5-7.6C71.7,169.2,78.4,160.7,77.8,150.3z"/>
<path class="st0" d="M107.8,106.5c-2.6-8.2-14-4.5-17.9,0.8c0,0,0,0,0,0c-1.4,1.7-2.7,3.8-3.4,5.9c-6.2,10.3-12.1,20.8-17.3,31.6
	c-2.4,20.9,19-3.7,23.1-9.4c0,0.1-0.1,0.1-0.1,0.2C97.7,127.4,108.4,116.6,107.8,106.5z"/>
<path class="st0" d="M162.9,164.6c-0.7-1.9-2-5-4.6-3.8c-0.7,0.3-1.7,0.9-1.6,1.7C134,200.7,166.9,179.6,162.9,164.6z"/>
<path class="st0" d="M162.7,165.5c-10.9-10-14.6-18.1-25.1-22.5c0,0,0,0,0,0c-0.1,0-0.1-0.1-0.2-0.1c0,0,0.1,0,0.1,0
	c-3.8-2-9.8-0.8-10.6,1.3s-0.3,4.3,1.3,5.8c7.1,6.7,16,11.2,24.5,15.7C155.6,167.2,163.6,172.4,162.7,165.5z"/>
<path class="st0" d="M132,142.7c-2.5-14.3-7.3-31.7-19.9-40.1c-4.4-1.8-11.7-0.6-12.1,5.1c0.1,1.2-0.8,5.5,1.3,4.7
	c3.6,8.5,8.3,16.6,14,23.9c0,0-0.1-0.1-0.1-0.1c0.5,0.6,1,1.3,1.5,1.9c0-0.1-0.1-0.1-0.1-0.2C119.9,142.8,132.2,157.1,132,142.7z"/>
<path class="st0" d="M134.3,126.5c-0.6-1.8-1.7-3.5-2.5-5.3c0,0.1,0.1,0.1,0.1,0.2c-1.4-2.9-2.9-5.8-4.2-8.8c0,0,0,0,0,0.1
	c0-0.1-0.1-0.1-0.1-0.2c0,0,0,0.1,0.1,0.1c-2.5-5.8-4.3-11.7-4.9-18c0,0.1,0,0.1,0,0.2c-0.2-1.4-0.4-2.8-0.6-4.2c0,0,0,0,0,0
	c-1.5-7.4-2.6-14.9-3-22.4c0,0,0,0,0,0c-0.5-5-1.4-9.9-3.2-14.6c0,0,0,0,0,0c-1.7-6.5-8.8-10.6-15.1-7.7c-6.9,3-8.9,11.7-11,18.2
	c-2.7,19.6-1.4,41.6-14.3,58.2c0,0,0,0,0,0c-0.5,0.6-0.9,1.2-1.4,1.9c0,0,0,0,0,0c-0.7,0.7-0.9,1.9,0.2,2.3
	c3.6,1.2,6.7,3.7,10.4,4.8C99.5,134.8,123.3,138.3,134.3,126.5z"/>
<path class="st0" d="M63.8,103.4c-0.4-2.1-3.4-3.3-5.2-2.1c-2.4,0.7-13.1,3-9.7,6.7c-3.1,3.4-6,11.2,1.6,10.1
	C56.1,115.3,64.1,110.3,63.8,103.4z"/>
<path class="st0" d="M86,81.8c-0.3-2-1.8-4.7-4.2-4c-1.1-0.1-1.6,1.4-2.5,1.8c0,0,0,0,0,0c-0.5,0.4-2.5,2.7-2.5,2.7
	c-7.1,5.5-16.4,18.4-16.4,18.4C49.7,119.3,88.5,97,86,81.8z"/>
<path class="st0" d="M106.4,57.3c-0.5-3.4-4.2-5.8-7.2-3.7c0,0,0,0,0,0c0,0-0.1,0-0.1,0c0,0,0,0,0,0c0,0-0.1,0-0.1,0c0,0,0,0,0,0
	C89.9,59.9,84,72,78.5,82.6c-2.4,4.7,6.3,6.1,9.4,2.5c0,0,0,0-0.1,0.1c4.5-3.3,8.5-7.3,11.9-11.7c0,0.1-0.1,0.1-0.1,0.2
	C103,68.9,107.5,63.6,106.4,57.3z"/>
<path class="st0" d="M106.9,46.1c-0.5-2.8-1-7.3-4.4-7.9c-2.6-0.3-8.1,0-7.9,3.4c0.7,3,1.7,7.1,4.7,8.5
	C102.3,51,107.8,50.5,106.9,46.1z"/>
<path class="st0" d="M119.7,35.3c-3.9-6.3,1-19.2-11-18.9c-5.1-7.4-15.5-3-20.2,2.6c-1.4,1.6-5.5,3.7-2.3,5.6
	c-0.4,0.6-0.8,1.3-1.1,2.1c0-0.1,0-0.1,0.1-0.2c-1,2.2-0.5,4.7-1.9,6.8c-2.9,1.9-3.6,2.7,0.1,4.3c-0.5,12.7,15.8,9.1,23.2,5.7
	c0,0,0,0,0,0c3.6-1.2,6.3-4.3,9.9-5.4C117.7,37.3,121,37.3,119.7,35.3z"/>
</svg>
