<?xml version="1.0" encoding="utf-8"?>
<!-- Generator: Adobe Illustrator 25.0.1, SVG Export Plug-In . SVG Version: 6.00 Build 0)  -->
<svg version="1.1" id="Layer_1" xmlns="http://www.w3.org/2000/svg" xmlns:xlink="http://www.w3.org/1999/xlink" x="0px" y="0px"
	 viewBox="0 0 60 60" style="enable-background:new 0 0 60 60;" xml:space="preserve">
<style type="text/css">
	.st0{fill:none;}
	.st1{fill:#E0E0E0;}
</style>
<rect class="st0" width="60" height="60"/>
<path class="st1" d="M14,34L14,34c-2.2,0-4-1.8-4-4v0c0-2.2,1.8-4,4-4h0c2.2,0,4,1.8,4,4v0C18,32.2,16.3,34,14,34z"/>
<path class="st1" d="M30,34L30,34c-2.2,0-4-1.8-4-4v0c0-2.2,1.8-4,4-4h0c2.2,0,4,1.8,4,4v0C34,32.2,32.2,34,30,34z"/>
<path class="st1" d="M46,34L46,34c-2.2,0-4-1.8-4-4v0c0-2.2,1.8-4,4-4h0c2.2,0,4,1.8,4,4v0C50,32.2,48.2,34,46,34z"/>
</svg>
