<?xml version="1.0" encoding="utf-8"?>
<!-- Generator: Adobe Illustrator 24.3.0, SVG Export Plug-In . SVG Version: 6.00 Build 0)  -->
<svg version="1.1" id="Layer_1" xmlns="http://www.w3.org/2000/svg" xmlns:xlink="http://www.w3.org/1999/xlink" x="0px" y="0px"
	 viewBox="0 0 20 20" style="enable-background:new 0 0 20 20;" xml:space="preserve">
<style type="text/css">
	.st0{fill:#FFFFFF;}
</style>
<g>
	<path class="st0" d="M2.5,11.9c0-4.3,3.2-6.4,7.1-7.7l0.1,0.2C6.7,5.3,5,6.6,5,8.4c0,0.5,0.1,0.8,0.2,1.1c2.2,0.2,3.5,1.4,3.5,3.5
		c0,1.6-1.4,2.9-2.9,2.9C4,15.9,2.5,14.6,2.5,11.9z M10.9,11.9c0-4.3,3.2-6.4,7.1-7.7l0.1,0.2c-2.9,0.9-4.6,2.2-4.6,4
		c0,0.5,0.1,0.8,0.2,1.1c2.2,0.2,3.5,1.4,3.5,3.5c0,1.6-1.4,2.9-2.9,2.9C12.4,15.9,10.9,14.6,10.9,11.9z"/>
</g>
</svg>
