<?xml version="1.0" encoding="utf-8"?>
<!-- Generator: Adobe Illustrator 24.3.0, SVG Export Plug-In . SVG Version: 6.00 Build 0)  -->
<svg version="1.1" id="Layer_1" xmlns="http://www.w3.org/2000/svg" xmlns:xlink="http://www.w3.org/1999/xlink" x="0px" y="0px"
	 viewBox="0 0 60 60" style="enable-background:new 0 0 60 60;" xml:space="preserve">
<style type="text/css">
	.st0{fill:none;}
	.st1{fill:#E0E0E0;}
</style>
<rect y="0" class="st0" width="60" height="60"/>
<g>
	<g>
		<path class="st1" d="M35.7,46.3c-2.4,0-4.3-0.7-6-1.9c-1.8-1.3-3.3-3-4.6-4.8c-2.4-3.3-4.4-6.8-5.9-10.6c-0.6-1.6-1.1-3.2-1.2-4.8
			c-0.3-2.8,0.4-5.3,2.3-7.5c0.8-0.9,1.6-1.8,2.7-2.4c0.4-0.2,0.7-0.4,1.1-0.5c0.6-0.1,1.1,0.1,1.5,0.5c0.1,0.2,0.3,0.4,0.4,0.5
			c1,2,1.9,4,2.5,6.2c0.1,0.2,0.1,0.5,0.1,0.7c0,0.5-0.1,0.8-0.5,1.1c-0.3,0.2-0.7,0.4-1.1,0.5c-0.6,0.2-1.1,0.3-1.7,0.5
			c-1,0.3-1.3,0.9-1.1,1.8c0.3,1.3,0.7,2.5,1.3,3.7c1.2,2.6,2.6,5,4.4,7.2c0.5,0.6,1,1.2,1.6,1.7c0.3,0.2,0.5,0.5,0.9,0.5
			c0.5,0.1,0.9-0.2,1.2-0.5c0.5-0.5,1-1,1.6-1.5c0.2-0.2,0.4-0.3,0.7-0.4c0.4-0.2,0.8-0.1,1.1,0.1c0.4,0.3,0.8,0.7,1.1,1
			c1.3,1.5,2.5,3,3.5,4.7c0.1,0.1,0.2,0.3,0.3,0.5c0.4,0.8,0.2,1.5-0.4,2c-0.6,0.5-1.2,0.8-1.9,1C38.2,46,36.9,46.3,35.7,46.3z"/>
	</g>
</g>
</svg>
