<?xml version="1.0" encoding="utf-8"?>
<!-- Generator: Adobe Illustrator 24.3.0, SVG Export Plug-In . SVG Version: 6.00 Build 0)  -->
<svg version="1.1" id="Layer_1" xmlns="http://www.w3.org/2000/svg" xmlns:xlink="http://www.w3.org/1999/xlink" x="0px" y="0px"
	 viewBox="0 0 60 60" style="enable-background:new 0 0 60 60;" xml:space="preserve">
<style type="text/css">
	.st0{fill:none;}
	.st1{fill:#E0E0E0;}
</style>
<rect y="0" class="st0" width="60" height="60"/>
<path class="st1" d="M30.4,11.6c-10.2-0.2-18.7,7.9-18.9,18.2c-0.2,10.9,8.6,18.9,18.5,19c10.2,0,18.6-8.3,18.7-18.5
	C48.7,20.8,41.3,11.9,30.4,11.6z M34.6,14.6c0.1-0.1,0.2,0,0.3,0c3.9,1.3,7,3.6,9.2,7.1c0.2,0.4,0.5,0.8,0.7,1.2
	c0.1,0.2,0.1,0.3-0.2,0.3c-0.9,0.1-1.9,0-2.8,0c-0.1,0-0.3,0-0.4,0c-1.1,0-2.3,0-3.4-0.1c-0.3,0-0.4-0.1-0.5-0.4
	c-0.3-1.6-0.7-3.2-1.3-4.8c-0.4-1.1-0.9-2.2-1.5-3.2C34.6,14.7,34.5,14.6,34.6,14.6z M35.7,31.6c0,0.9-0.1,1.9-0.2,2.8
	c-0.1,0.5-0.1,0.5-0.6,0.5c-3.2,0-6.5,0-9.7,0c-0.5,0-0.5,0-0.6-0.5c-0.2-1.7-0.3-3.4-0.2-5.1c0-1.1,0.1-2.3,0.2-3.4
	c0-0.4,0.1-0.4,0.5-0.4c1.6,0,3.3,0,4.9,0c1.7,0,3.3,0,5,0c0.3,0,0.4,0.1,0.5,0.4C35.7,27.8,35.8,29.7,35.7,31.6z M28.3,14.8
	c0.5-0.5,1.1-1,1.9-0.9c0.5,0,0.9,0.3,1.2,0.6c0.7,0.5,1.1,1.3,1.5,2c0.9,1.6,1.4,3.4,1.8,5.3c0.1,0.4,0.2,0.8,0.2,1.2
	c0.1,0.3,0,0.4-0.3,0.4c-1.6,0-3.1,0-4.7,0c-1.5,0-3.1,0-4.6,0c-0.4,0-0.5-0.1-0.4-0.4c0.1-0.5,0.2-1,0.3-1.6
	c0.4-1.6,0.8-3.1,1.6-4.6C27.4,16,27.8,15.4,28.3,14.8z M15.5,22.9c0.3-0.7,0.7-1.4,1.2-2c2.2-3,5.1-5.1,8.6-6.3
	c0.1,0,0.2-0.1,0.2,0c0.1,0.1,0,0.1,0,0.2c-1.5,2.5-2.2,5.3-2.8,8.1c-0.1,0.3-0.2,0.4-0.5,0.4c-1.1,0-2.1,0-3.2,0c0,0,0,0,0,0
	c-1,0-2,0-3.1,0c-0.1,0-0.2,0-0.3,0C15.4,23.2,15.4,23.2,15.5,22.9z M14.3,34.5c-0.3-0.8-0.4-1.6-0.4-2.4c-0.1-1.3-0.1-2.5,0-3.8
	c0.1-0.9,0.2-1.7,0.5-2.5c0.1-0.2,0.2-0.3,0.4-0.3c2.4,0,4.9,0,7.3,0c0.3,0,0.3,0.1,0.3,0.4c-0.2,2.2-0.1,4.4-0.1,6.6
	c0,0.7,0.1,1.4,0.1,2.1c0,0.3-0.1,0.3-0.3,0.3c-1.2,0-2.4,0-3.6,0c-1.2,0-2.4,0-3.5,0C14.6,34.9,14.4,34.8,14.3,34.5z M25.5,45.7
	c-0.1,0.1-0.3,0-0.4,0c-2.5-0.9-4.7-2.2-6.6-4.1c-1.2-1.2-2.1-2.6-2.9-4.1c-0.2-0.4-0.2-0.5,0.3-0.5c1.1,0,2.1,0,3.2,0c0,0,0,0,0,0
	c1.1,0,2.2,0,3.2,0c0.3,0,0.4,0.1,0.5,0.4c0.4,2.1,0.9,4.1,1.7,6.1c0.3,0.6,0.6,1.2,0.9,1.8C25.4,45.5,25.6,45.6,25.5,45.7z
	 M31.7,45.7c-0.2,0.2-0.3,0.3-0.5,0.4c-0.7,0.5-1.4,0.5-2.1,0c-0.5-0.3-0.9-0.8-1.3-1.2c-1-1.4-1.6-2.9-2-4.5
	c-0.3-0.9-0.5-1.9-0.7-2.9c-0.1-0.4,0-0.4,0.4-0.4c1.6,0,3.1,0,4.7,0c1.6,0,3.1,0,4.7,0c0.3,0,0.4,0,0.3,0.3
	c-0.4,2.1-0.9,4.1-1.9,6.1C32.8,44.3,32.4,45.1,31.7,45.7z M44.6,37.6c-1.8,3.4-4.5,6-8.1,7.6c-0.6,0.3-1.3,0.5-2,0.7
	c0-0.1,0-0.2,0-0.2c1.3-2.1,2-4.4,2.5-6.8c0.1-0.4,0.2-0.8,0.3-1.3c0.1-0.3,0.3-0.4,0.5-0.4c0.6,0,1.2,0,1.8,0c1.5,0,3.1,0,4.6,0
	C44.8,37.1,44.8,37.2,44.6,37.6z M45.8,34.6c-0.1,0.2-0.2,0.3-0.4,0.3c-2.4,0-4.9,0-7.3,0c-0.2,0-0.3-0.1-0.3-0.3
	c0.1-1.1,0.1-2.3,0.1-3.4c0-1.8,0-3.5-0.1-5.3c0-0.4,0-0.4,0.4-0.4c1.2,0,2.4,0,3.6,0c1.2,0,2.4,0,3.6,0c0.3,0,0.4,0.1,0.5,0.3
	c0.3,0.8,0.4,1.6,0.5,2.5c0.1,1.3,0.1,2.5,0,3.8C46.2,32.9,46.1,33.8,45.8,34.6z"/>
</svg>
